<svg width="28" height="16" viewBox="0 0 28 16" fill="none" xmlns="http://www.w3.org/2000/svg">
<path d="M20.8309 4.82066L23.1536 0.720468C23.2846 0.491071 23.2054 0.198431 22.9828 0.06551C22.7604 -0.0684834 22.4708 0.00976822 22.3428 0.239165L19.9896 4.39189C18.1942 3.55684 16.1734 3.09054 14.0001 3.09054C11.8268 3.09054 9.80577 3.55684 8.01052 4.39189L5.65735 0.239165C5.52629 0.00976822 5.23975 -0.0684834 5.01412 0.06551C4.7886 0.198431 4.71244 0.491071 4.84351 0.720468L7.16617 4.82066C3.16091 7.03209 0.448103 11.1634 0 16H28C27.552 11.1634 24.8391 7.03209 20.8309 4.82066ZM7.57157 11.9931C6.92235 11.9931 6.39798 11.456 6.39798 10.7968C6.39798 10.1354 6.9254 9.60156 7.57157 9.60156C8.22079 9.60156 8.74505 10.1386 8.74505 10.7968C8.74831 11.456 8.22079 11.9931 7.57157 11.9931ZM20.4255 11.9931C19.7763 11.9931 19.2519 11.456 19.2519 10.7968C19.2519 10.1354 19.7793 9.60156 20.4255 9.60156C21.0747 9.60156 21.599 10.1386 21.599 10.7968C21.6022 11.456 21.0747 11.9931 20.4255 11.9931Z" fill="#1D1D1B"/>
</svg>
