<svg width="17" height="17" viewBox="0 0 17 17" fill="none" xmlns="http://www.w3.org/2000/svg">
<path d="M7.00204 4.57809C7.3085 3.51869 7.46173 2.98899 7.69794 2.8551C7.90186 2.7395 8.15152 2.7395 8.35544 2.8551C8.59165 2.98899 8.74488 3.51869 9.05135 4.57809L9.45143 5.96112C9.53386 6.24607 9.57507 6.38854 9.65909 6.49284C9.73323 6.58488 9.8305 6.65555 9.94094 6.69762C10.0661 6.7453 10.2143 6.74047 10.5108 6.73081L11.9498 6.68393C13.052 6.64802 13.6032 6.63007 13.8035 6.81334C13.9764 6.97156 14.0536 7.20899 14.0067 7.43866C13.9523 7.70468 13.4959 8.0141 12.5831 8.63294L11.3913 9.44082C11.1458 9.60727 11.0231 9.69049 10.9498 9.80263C10.8852 9.90158 10.848 10.0159 10.8422 10.134C10.8355 10.2677 10.8859 10.4072 10.9867 10.6862L11.4759 12.0403C11.8507 13.0775 12.0381 13.5961 11.9257 13.8432C11.8287 14.0566 11.6267 14.2034 11.3938 14.2297C11.124 14.2602 10.6887 13.9217 9.81802 13.2448L8.68143 12.3611C8.44725 12.179 8.33016 12.088 8.20088 12.053C8.08681 12.0221 7.96657 12.0221 7.8525 12.053C7.72322 12.088 7.60613 12.179 7.37195 12.3611L6.23536 13.2448C5.36472 13.9217 4.92941 14.2602 4.65961 14.2297C4.42669 14.2034 4.22471 14.0566 4.12768 13.8432C4.01528 13.5961 4.20267 13.0775 4.57743 12.0403L5.06668 10.6862C5.16748 10.4072 5.21788 10.2677 5.21122 10.134C5.20533 10.0159 5.16818 9.90158 5.10356 9.80263C5.03033 9.69049 4.90756 9.60727 4.66203 9.44082L3.47033 8.63294C2.55748 8.0141 2.10106 7.70468 2.04671 7.43866C1.99979 7.20899 2.07694 6.97156 2.24989 6.81334C2.45022 6.63007 3.00135 6.64802 4.1036 6.68393L5.54257 6.73081C5.83904 6.74047 5.98728 6.7453 6.11244 6.69762C6.22288 6.65555 6.32015 6.58488 6.39429 6.49284C6.47831 6.38854 6.51953 6.24607 6.60195 5.96112L7.00204 4.57809Z" fill="#FFE810"/>
</svg>
