<svg width="17" height="17" viewBox="0 0 17 17" fill="none" xmlns="http://www.w3.org/2000/svg">
<path d="M7.9493 4.57809C8.25576 3.51869 8.409 2.98899 8.6452 2.8551C8.84913 2.7395 9.09878 2.7395 9.30271 2.8551C9.53892 2.98899 9.69215 3.51869 9.99861 4.57809L10.3987 5.96112C10.4811 6.24607 10.5223 6.38854 10.6064 6.49284C10.6805 6.58488 10.7778 6.65555 10.8882 6.69762C11.0134 6.7453 11.1616 6.74047 11.4581 6.73081L12.897 6.68393C13.9993 6.64802 14.5504 6.63007 14.7508 6.81334C14.9237 6.97156 15.0009 7.20899 14.9539 7.43866C14.8996 7.70468 14.4432 8.0141 13.5303 8.63294L12.3386 9.44082C12.0931 9.60727 11.9703 9.69049 11.8971 9.80263C11.8325 9.90158 11.7953 10.0159 11.7894 10.134C11.7828 10.2677 11.8332 10.4072 11.934 10.6862L12.4232 12.0403C12.798 13.0775 12.9854 13.5961 12.873 13.8432C12.7759 14.0566 12.574 14.2034 12.341 14.2297C12.0712 14.2602 11.6359 13.9217 10.7653 13.2448L9.62869 12.3611C9.39452 12.179 9.27743 12.088 9.14815 12.053C9.03407 12.0221 8.91384 12.0221 8.79977 12.053C8.67048 12.088 8.55339 12.179 8.31922 12.3611L7.18263 13.2448C6.31199 13.9217 5.87667 14.2602 5.60688 14.2297C5.37395 14.2034 5.17198 14.0566 5.07494 13.8432C4.96255 13.5961 5.14993 13.0775 5.5247 12.0403L6.01395 10.6862C6.11475 10.4072 6.16515 10.2677 6.15848 10.134C6.1526 10.0159 6.11544 9.90158 6.05083 9.80263C5.97759 9.69049 5.85483 9.60727 5.6093 9.44082L4.4176 8.63294C3.50475 8.0141 3.04832 7.70468 2.99397 7.43866C2.94705 7.20899 3.0242 6.97156 3.19715 6.81334C3.39749 6.63007 3.94861 6.64802 5.05087 6.68393L6.48983 6.73081C6.78631 6.74047 6.93454 6.7453 7.05971 6.69762C7.17015 6.65555 7.26741 6.58488 7.34155 6.49284C7.42558 6.38854 7.46679 6.24607 7.54922 5.96112L7.9493 4.57809Z" fill="url(#paint0_linear_15056_221)"/>
<defs>
<linearGradient id="paint0_linear_15056_221" x1="14.974" y1="9.03598" x2="2.30729" y2="9.03598" gradientUnits="userSpaceOnUse">
<stop offset="0.458564" stop-color="#CCCCCC"/>
<stop offset="0.458664" stop-color="#FFE810"/>
</linearGradient>
</defs>
</svg>
