<svg width="23" height="12" viewBox="0 0 23 12" fill="none" xmlns="http://www.w3.org/2000/svg">
<path d="M0.106923 11.8071H2.0089V3.2932H0.106923V11.8071ZM1.0541 2.17668C1.6499 2.17668 2.11584 1.69475 2.11584 1.09236C2.11584 0.481913 1.6499 0 1.0541 0C0.465942 0 0 0.481934 0 1.09236C0 1.69477 0.465942 2.17668 1.0541 2.17668ZM8.34144 0.024037C5.12572 0.024037 3.10907 2.32925 3.10907 6.01603C3.10907 9.70281 5.12552 12 8.34144 12C11.5495 12 13.5662 9.70281 13.5662 6.01603C13.5662 2.32925 11.5497 0.024037 8.34144 0.024037ZM8.34144 1.7911C10.3045 1.7911 11.5572 3.42965 11.5572 6.01599C11.5572 8.59426 10.3045 10.2329 8.34144 10.2329C6.37074 10.2329 5.12572 8.59431 5.12572 6.01599C5.12572 3.42969 6.37078 1.7911 8.34144 1.7911ZM14.3685 8.54615C14.4525 10.6828 16.1177 12 18.6536 12C21.3195 12 23 10.6184 23 8.41764C23 6.69075 22.0528 5.71886 19.8148 5.18076L18.5468 4.87553C17.1948 4.53819 16.6372 4.0884 16.6372 3.31732C16.6372 2.35347 17.4774 1.71091 18.7225 1.71091C19.9828 1.71091 20.8459 2.36151 20.9376 3.44583H22.8167C22.7708 1.40568 21.1668 0.0240987 18.7378 0.0240987C16.3393 0.0240987 14.6359 1.41364 14.6359 3.46989C14.6359 5.1245 15.5983 6.15262 17.6301 6.64262L19.0584 6.99604C20.4486 7.34142 21.0139 7.82333 21.0139 8.65866C21.0139 9.62251 20.0896 10.3133 18.7606 10.3133C17.4163 10.3133 16.4004 9.61449 16.2782 8.54621H14.3686L14.3685 8.54615Z" fill="#1D1D1B"/>
</svg>
