<svg width="52" height="12" viewBox="0 0 52 12" fill="none" xmlns="http://www.w3.org/2000/svg">
<path d="M3.98341e-05 11.8067H2.03904V6.58336C2.03904 5.5532 2.72688 4.80472 3.70955 4.80472C4.65943 4.80472 5.24904 5.39224 5.24904 6.34191V11.8065H7.23071V6.53497C7.23071 5.51286 7.90218 4.80462 8.88482 4.80462C9.88384 4.80462 10.4407 5.40018 10.4407 6.44645V11.8066H12.4797V5.95568C12.4797 4.24948 11.3578 3.11469 9.64631 3.11469C8.39343 3.11469 7.36175 3.77463 6.94395 4.82895H6.89482C6.57547 3.7344 5.69927 3.11469 4.47106 3.11469C3.29189 3.11469 2.37475 3.7666 1.99804 4.75653H1.9571V3.27566H0V11.8067L3.98341e-05 11.8067ZM16.9429 10.4305C16.0585 10.4305 15.4689 9.98784 15.4689 9.28763C15.4689 8.6116 16.0339 8.17699 17.0166 8.11261L19.0228 7.99188V8.64379C19.0228 9.67396 18.0975 10.4305 16.9429 10.4305V10.4305ZM16.3287 11.9435C17.4424 11.9435 18.5315 11.3721 19.0311 10.4466H19.072V11.8067H21.0373V5.93149C21.0373 4.21723 19.637 3.09854 17.4834 3.09854C15.2724 3.09854 13.8887 4.24138 13.7985 5.83486H15.6901C15.8211 5.12662 16.4353 4.66787 17.4016 4.66787C18.4088 4.66787 19.0229 5.18295 19.0229 6.07629V6.68797L16.73 6.81674C14.6173 6.94551 13.43 7.85496 13.43 9.36805C13.43 10.9052 14.6501 11.9435 16.3288 11.9435L16.3287 11.9435ZM29.9879 6.31781C29.8487 4.52307 28.432 3.09854 26.1392 3.09854C23.6172 3.09854 21.9793 4.8128 21.9793 7.54103C21.9793 10.3097 23.6171 11.9755 26.1556 11.9755C28.3339 11.9755 29.8323 10.72 29.996 8.81246H28.0717C27.8833 9.77824 27.2119 10.3577 26.1801 10.3577C24.8863 10.3577 24.0511 9.32754 24.0511 7.54082C24.0511 5.78632 24.8781 4.72393 26.1638 4.72393C27.2528 4.72393 27.8998 5.40802 28.0635 6.31748H29.9879L29.9879 6.31781ZM36.2854 0C32.838 0 30.6761 2.30984 30.6761 6.00402C30.6761 9.6982 32.8378 12 36.2854 12C39.7246 12 41.8865 9.6982 41.8865 6.00402C41.8865 2.30984 39.7248 0 36.2854 0ZM36.2854 1.77061C38.3899 1.77061 39.7328 3.41245 39.7328 6.00398C39.7328 8.58743 38.3899 10.2293 36.2854 10.2293C34.1727 10.2293 32.838 8.58747 32.838 6.00398C32.838 3.41249 34.1728 1.77061 36.2854 1.77061ZM42.7467 8.53922C42.8367 10.6801 44.6219 12 47.3405 12C50.1984 12 52 10.6157 52 8.41045C52 6.6801 50.9846 5.70626 48.5853 5.16707L47.226 4.86123C45.7766 4.52321 45.1788 4.07252 45.1788 3.29989C45.1788 2.33411 46.0796 1.69026 47.4143 1.69026C48.7654 1.69026 49.6907 2.34217 49.789 3.42866H51.8034C51.7543 1.38442 50.0347 6.1808e-05 47.4307 6.1808e-05C44.8594 6.1808e-05 43.0333 1.39239 43.0333 3.45277C43.0333 5.1107 44.0651 6.14089 46.2432 6.63186L47.7745 6.98599C49.2648 7.33207 49.8708 7.81495 49.8708 8.65196C49.8708 9.61774 48.88 10.3099 47.4552 10.3099C46.014 10.3099 44.925 9.6097 44.7939 8.53928H42.7468L42.7467 8.53922Z" fill="#1D1D1B"/>
</svg>
